<?xml version="1.0" encoding="UTF-8"?>
<svg width="16px" height="16px" viewBox="0 0 16 16" version="1.1" xmlns="http://www.w3.org/2000/svg" xmlns:xlink="http://www.w3.org/1999/xlink">
    <title>公告</title>
    <g id="首页" stroke="none" stroke-width="1" fill="none" fill-rule="evenodd">
        <g id="1440" transform="translate(-226.000000, -463.000000)">
            <g id="编组-18" transform="translate(210.000000, 444.000000)">
                <g id="公告" transform="translate(16.000000, 19.000000)">
                    <rect id="矩形" x="0" y="0" width="16" height="16"></rect>
                    <path d="M4.6460177,9.06859429 C5.17699115,9.06859429 5.57522124,9.46848308 5.57522124,10.0016681 L7.03539823,15.0669262 C7.03539823,15.6001112 6.63716814,16 6.10619469,16 L4.38053097,16 C3.84955752,16 3.45132743,15.6001112 3.45132743,15.0669262 L1.99115044,10.0016681 C1.99115044,9.46848308 2.38938053,9.06859429 2.92035398,9.06859429 L4.6460177,9.06859429 Z M12.2123894,0.937522203 L12.2123894,9.73507561 C12.2123894,10.5348532 11.4159292,10.934742 10.7522124,10.5348532 L7.772,8.802 L1.72566372,8.80200176 C0.796460177,8.80200176 0,8.00222418 0,7.06915033 L0,3.73674374 C0,2.80366989 0.796460177,2.00389231 1.72566372,2.00389231 L7.542,2.003 L10.7522124,0.137744621 C11.4159292,-0.26214417 12.2123894,0.271040885 12.2123894,0.937522203 Z M13.6725664,7.33574286 C15,7.33574286 15,6.40266901 15,5.7361877 C15,5.06970638 15,4.13663253 13.6725664,4.13663253 L13.6725664,7.33574286 Z" id="形状结合" fill="#2F70F4" fill-rule="nonzero"></path>
                </g>
            </g>
        </g>
    </g>
</svg>