<?xml version="1.0" encoding="UTF-8"?>
<svg width="16px" height="16px" viewBox="0 0 16 16" version="1.1" xmlns="http://www.w3.org/2000/svg" xmlns:xlink="http://www.w3.org/1999/xlink">
    <title>文档</title>
    <g id="首页" stroke="none" stroke-width="1" fill="none" fill-rule="evenodd">
        <g id="1440" transform="translate(-226.000000, -589.000000)">
            <g id="编组-21" transform="translate(210.000000, 570.000000)">
                <g id="文档" transform="translate(16.000000, 19.000000)">
                    <rect id="矩形" x="0" y="0" width="16" height="16"></rect>
                    <path d="M10.3652174,0 C10.5913043,0 10.7043478,0.233576642 10.7043478,0.350364964 L10.7043478,0.350364964 L10.7043478,2.2189781 C10.7043478,3.62043796 11.8347826,4.67153285 13.0782609,4.67153285 L13.0782609,4.67153285 L13.0782609,4.55474453 L14.6608696,4.55474453 C14.8869565,4.55474453 15,4.78832117 15,4.90510949 L15,4.90510949 L15,14.3649635 C15,15.2992701 14.3217391,16 13.4173913,16 L13.4173913,16 L3.5826087,16 C2.67826087,16 2,15.2992701 2,14.3649635 L2,14.3649635 L2,1.6350365 C2,0.700729927 2.67826087,0 3.5826087,0 L3.5826087,0 Z M12.626087,12.2627737 L4.37391304,12.2627737 C4.14782609,12.2627737 4.03478261,12.4963504 4.03478261,12.6131387 L4.03478261,12.6131387 L4.03478261,12.8467153 C4.03478261,13.080292 4.26086957,13.1970803 4.37391304,13.1970803 L4.37391304,13.1970803 L12.7391304,13.1970803 C12.8521739,13.1970803 12.9652174,13.080292 12.9652174,12.8467153 L12.9652174,12.8467153 L12.9652174,12.6131387 C12.9652174,12.379562 12.7391304,12.2627737 12.626087,12.2627737 L12.626087,12.2627737 Z M12.626087,9.45985401 L4.37391304,9.45985401 C4.14782609,9.45985401 4.03478261,9.69343066 4.03478261,9.81021898 L4.03478261,9.81021898 L4.03478261,10.0437956 C4.03478261,10.2773723 4.26086957,10.3941606 4.37391304,10.3941606 L4.37391304,10.3941606 L12.7391304,10.3941606 C12.8521739,10.3941606 12.9652174,10.2773723 12.9652174,10.0437956 L12.9652174,10.0437956 L12.9652174,9.81021898 C12.9652174,9.57664234 12.7391304,9.45985401 12.626087,9.45985401 L12.626087,9.45985401 Z M12.626087,6.77372263 L4.37391304,6.77372263 C4.14782609,6.77372263 4.03478261,7.00729927 4.03478261,7.12408759 L4.03478261,7.12408759 L4.03478261,7.24087591 C4.03478261,7.47445255 4.26086957,7.59124088 4.37391304,7.59124088 L4.37391304,7.59124088 L12.7391304,7.59124088 C12.8521739,7.59124088 12.9652174,7.47445255 12.9652174,7.35766423 L12.9652174,7.35766423 L12.9652174,7.12408759 C12.9652174,6.89051095 12.7391304,6.77372263 12.626087,6.77372263 L12.626087,6.77372263 Z M11.4956522,1.05109489 C11.4956522,0.700729927 11.9478261,0.467153285 12.0608696,0.700729927 L12.0608696,0.700729927 L14.3217391,3.03649635 C14.6608696,3.27007299 14.4347826,3.73722628 14.0956522,3.73722628 L14.0956522,3.73722628 L13.0782609,3.73722628 C12.173913,3.73722628 11.4956522,3.03649635 11.4956522,2.10218978 L11.4956522,2.10218978 Z" id="形状结合" fill="#2F70F4" fill-rule="nonzero"></path>
                </g>
            </g>
        </g>
    </g>
</svg>