<?xml version="1.0" encoding="UTF-8"?>
<svg width="24px" height="24px" viewBox="0 0 24 24" version="1.1" xmlns="http://www.w3.org/2000/svg" xmlns:xlink="http://www.w3.org/1999/xlink">
    <title>logo</title>
    <g id="页面-1" stroke="none" stroke-width="1" fill="none" fill-rule="evenodd">
        <g id="01-1.全部应用" transform="translate(-20.000000, -8.000000)">
            <g id="logo" transform="translate(20.000000, 8.000000)">
                <rect id="蒙版" fill="#F5FAFF" x="0" y="0" width="24" height="24" rx="2"></rect>
                <g id="资源-1" transform="translate(4.000000, 4.000000)" fill-rule="nonzero">
                    <path d="M1.16034197,15.1111111 C0.519502794,15.1111111 0,14.6106136 0,13.9932187 L0,2.69831289 C0.00159892866,1.20871436 1.25461265,0.00154043404 2.80077542,0 L8.75478013,0 C10.3009429,0.00154043404 11.5539566,1.20871436 11.5555556,2.69831289 L11.5555556,8.29476193 C11.5555556,8.91215688 11.0360528,9.41265438 10.3952136,9.41265438 C9.75437442,9.41265438 9.23487162,8.91215688 9.23487162,8.29476193 L9.23487162,2.70529971 C9.23681414,2.5814236 9.18709207,2.46197487 9.09684605,2.37371702 C9.00660003,2.28545916 8.88337485,2.23577075 8.75478013,2.23578489 L2.80802756,2.23578489 C2.67944752,2.23391343 2.55546299,2.28181649 2.46385373,2.36876099 C2.37224448,2.45570548 2.32066926,2.57442264 2.32068393,2.69831289 L2.32068393,13.9932187 C2.32068393,14.6106136 1.80118114,15.1111111 1.16034197,15.1111111 Z" id="路径" fill="#1F8BFF"></path>
                    <path d="M13.1974657,15.1111111 L7.2469787,15.1111111 C5.70041075,15.1095715 4.44684388,13.9026896 4.44444444,12.4129481 L4.44444444,6.81251221 C4.44444444,6.19483167 4.96427348,5.69410265 5.60551509,5.69410265 C6.24675669,5.69410265 6.76658573,6.19483167 6.76658573,6.81251221 L6.76658573,12.4129481 C6.76738557,12.6679673 6.98223074,12.8742932 7.2469787,12.874292 L13.1974657,12.874292 C13.4622137,12.8742932 13.6770589,12.6679673 13.6778587,12.4129481 L13.6778587,1.11840956 C13.6778587,0.500729014 14.1976878,0 14.8389294,0 C15.480171,0 16,0.500729014 16,1.11840956 L16,12.4129481 C15.9976006,13.9026896 14.7440337,15.1095715 13.1974657,15.1111111 L13.1974657,15.1111111 Z" id="路径" fill="#FFDC29"></path>
                </g>
            </g>
        </g>
    </g>
</svg>