<svg xmlns="http://www.w3.org/2000/svg" xmlns:xlink="http://www.w3.org/1999/xlink" width="500" zoomAndPan="magnify" viewBox="0 0 375 374.999991" height="500" preserveAspectRatio="xMidYMid meet" version="1.0"><path fill="#004aad" d="M 0.363281 266.953125 C 97.117188 326.203125 183.433594 152.191406 281.515625 252.691406 C 176.527344 195.039062 79.515625 340.355469 0.363281 266.953125 Z M 137.046875 235.585938 C 121.078125 195.71875 118.8125 156.738281 127.890625 118.496094 C 103.792969 153.425781 93.734375 192.105469 104.1875 236.269531 C 111.734375 228.421875 122.691406 228.195312 137.046875 235.585938 Z M 154.546875 235.917969 C 155.34375 233.082031 154.792969 230.410156 153.421875 227.84375 C 148.648438 229.964844 144.035156 232.484375 139.597656 235.476562 L 129.085938 108.734375 C 129.042969 108.257812 127.609375 108.386719 127.65625 108.863281 L 139.480469 235.558594 C 133.246094 239.78125 127.367188 244.953125 121.933594 251.273438 L 123.222656 251.847656 C 133.660156 246.433594 144.089844 240.878906 154.546875 235.917969 Z M 219.054688 203.59375 C 218.101562 131.988281 237.925781 69.976562 274.972656 15.917969 C 216.546875 55.800781 177.722656 109.945312 167.527344 184.941406 C 183.972656 177.261719 201.148438 183.480469 219.054688 203.59375 Z M 236.578125 221.902344 C 247.371094 216.710938 250.183594 209.527344 249.175781 201.378906 C 240.484375 201.820312 231.789062 202.964844 223.097656 204.960938 L 282.667969 1.453125 C 282.886719 0.683594 280.582031 0.0273438 280.359375 0.796875 L 222.871094 205.015625 C 210.628906 207.84375 198.390625 212.363281 186.15625 218.941406 L 189.414062 222.199219 C 205.039062 218.183594 221.039062 217.40625 236.578125 221.902344 Z M 18.449219 284.160156 C 138.515625 336.53125 254.503906 198.90625 374.636719 284.859375 C 244.089844 233.421875 115.699219 347.261719 18.449219 284.160156 " fill-opacity="1" fill-rule="evenodd"/></svg>