<svg t="1657622025858" class="icon" viewBox="0 0 1024 1024" version="1.1" xmlns="http://www.w3.org/2000/svg" p-id="2543" width="200" height="200"><path d="M874.666667 0A64 64 0 0 1 938.666667 64v469.333333a64 64 0 0 1-64 64H554.666667v90.709334c73.642667 18.986667 128 85.76 128 165.290666h256a42.666667 42.666667 0 0 1 0 85.333334l-278.869334 0.042666A170.581333 170.581333 0 0 1 512 1024a170.581333 170.581333 0 0 1-147.797333-85.290667L85.333333 938.666667a42.666667 42.666667 0 0 1 0-85.333334h256a170.752 170.752 0 0 1 128-165.290666V597.333333H149.333333a64 64 0 0 1-63.701333-57.856L85.333333 533.333333v-469.333333A64 64 0 0 1 149.333333 0zM512 768a85.333333 85.333333 0 1 0 0 170.666667 85.333333 85.333333 0 0 0 0-170.666667z m341.333333-341.333333H170.666667v85.333333h682.666666v-85.333333z m0-341.333334H170.666667v256h682.666666V85.333333z" p-id="2544" fill="#3692FD"></path></svg>