<svg t="1657617522712" class="icon" viewBox="0 0 1024 1024" version="1.1" xmlns="http://www.w3.org/2000/svg" p-id="32707" width="200" height="200"><path d="M262.8096 776.2944a15.36 15.36 0 0 1-15.36-15.36V263.0656a15.36 15.36 0 0 1 30.72 0v497.8688a15.36 15.36 0 0 1-15.36 15.36zM761.1904 776.2944a15.36 15.36 0 0 1-15.36-15.36V263.0656a15.36 15.36 0 1 1 30.72 0v497.8688a15.36 15.36 0 0 1-15.36 15.36z" fill="#3692FD" p-id="32708"></path><path d="M761.1904 278.4256H262.8096a15.36 15.36 0 0 1 0-30.72h498.3808a15.36 15.36 0 0 1 0 30.72zM761.1904 440.6272H262.8096a15.36 15.36 0 1 1 0-30.72h498.3808a15.36 15.36 0 0 1 0 30.72zM761.1904 608.4608H262.8096a15.36 15.36 0 0 1 0-30.72h498.3808a15.36 15.36 0 0 1 0 30.72zM561.92 692.3776H461.3632a15.36 15.36 0 1 1 0-30.72h100.5568a15.36 15.36 0 0 1 0 30.72zM561.92 524.544H461.3632a15.36 15.36 0 0 1 0-30.72h100.5568a15.36 15.36 0 0 1 0 30.72zM561.92 359.5264H461.3632a15.36 15.36 0 1 1 0-30.72h100.5568a15.36 15.36 0 0 1 0 30.72zM761.1904 776.2944H262.8096a15.36 15.36 0 1 1 0-30.72h498.3808a15.36 15.36 0 0 1 0 30.72z" fill="#3692FD" p-id="32709"></path></svg>