<?xml version="1.0" standalone="no"?><!DOCTYPE svg PUBLIC "-//W3C//DTD SVG 1.1//EN" "http://www.w3.org/Graphics/SVG/1.1/DTD/svg11.dtd"><svg t="1637652640237" class="icon" viewBox="0 0 1024 1024" version="1.1" xmlns="http://www.w3.org/2000/svg" p-id="4095" xmlns:xlink="http://www.w3.org/1999/xlink" width="200" height="200"><defs><style type="text/css"></style></defs><path d="M866.432 544c16.32 0 29.568 11.968 29.568 26.688v266.624c0 14.72-13.248 26.688-29.568 26.688H157.568C141.248 864 128 852.032 128 837.312V570.688c0-14.72 13.248-26.688 29.568-26.688zM832 597.312H192v213.376h640V597.312zM866.432 160c16.32 0 29.568 11.968 29.568 26.688v266.624c0 14.72-13.248 26.688-29.568 26.688H157.568C141.248 480 128 468.032 128 453.312V186.688c0-14.72 13.248-26.688 29.568-26.688zM832 213.312H192v213.376h640V213.312z" p-id="4096" fill="#F5222D"></path><path d="M304 672a16 16 0 0 1 15.552 12.352L320 688v32a16 16 0 0 1-12.352 15.552L304 736h-32a16 16 0 0 1-15.552-12.352L256 720v-32a16 16 0 0 1 12.352-15.552L272 672h32z m128 0a16 16 0 0 1 15.552 12.352L448 688v32a16 16 0 0 1-12.352 15.552L432 736h-32a16 16 0 0 1-15.552-12.352L384 720v-32a16 16 0 0 1 12.352-15.552L400 672h32zM304 288a16 16 0 0 1 15.552 12.352L320 304v32a16 16 0 0 1-12.352 15.552L304 352h-32a16 16 0 0 1-15.552-12.352L256 336v-32a16 16 0 0 1 12.352-15.552L272 288h32z m128 0a16 16 0 0 1 15.552 12.352L448 304v32a16 16 0 0 1-12.352 15.552L432 352h-32a16 16 0 0 1-15.552-12.352L384 336v-32a16 16 0 0 1 12.352-15.552L400 288h32z" p-id="4097" fill="#F5222D"></path></svg>