<svg>
  <symbol id="icon-defaul_avatar" viewBox="0 0 1024 1024">
    <path d="M512 512m-469.333333 0a469.333333 469.333333 0 1 0 938.666666 0 469.333333 469.333333 0 1 0-938.666666 0Z" fill="#F5F5F5"></path>
    <path d="M512 612.570667c152.442667 0 281.12 101.754667 321.824 241.045333C749.797333 932.805333 636.565333 981.333333 512 981.333333s-237.797333-48.528-321.813333-127.706666c40.688-139.301333 169.365333-241.056 321.813333-241.056zM512 277.333333c92.576 0 167.621333 75.045333 167.621333 167.621334 0 92.570667-75.045333 167.616-167.621333 167.616-92.576 0-167.621333-75.04-167.621333-167.616S419.424 277.333333 512 277.333333z" fill="#BBBBBB"></path>
  </symbol>
  <symbol id="icon-poc_mining" viewBox="0 0 1024 1024">
    <path d="M245.333333 704c49.749333 0 92.266667 30.96 109.333334 74.666667H874.666667a21.333333 21.333333 0 0 1 21.333333 21.333333v21.333333a21.333333 21.333333 0 0 1-21.333333 21.333334H360.730667C350.698667 897.28 302.848 938.666667 245.333333 938.666667c-64.8 0-117.333333-52.533333-117.333333-117.333334s52.533333-117.333333 117.333333-117.333333z m0 69.333333a48 48 0 1 0 0 96 48 48 0 0 0 0-96z m629.333334-144a21.333333 21.333333 0 0 1 21.333333 21.333334v21.333333a21.333333 21.333333 0 0 1-21.333333 21.333333h-277.333334a21.333333 21.333333 0 0 1-21.333333-21.333333v-21.333333a21.333333 21.333333 0 0 1 21.333333-21.333334h277.333334zM245.333333 394.666667c49.749333 0 92.266667 30.96 109.333334 74.666666H874.666667a21.333333 21.333333 0 0 1 21.333333 21.333334v21.333333a21.333333 21.333333 0 0 1-21.333333 21.333333H360.730667C350.698667 587.946667 302.848 629.333333 245.333333 629.333333c-64.8 0-117.333333-52.533333-117.333333-117.333333s52.533333-117.333333 117.333333-117.333333z m0 69.333333a48 48 0 1 0 0 96 48 48 0 0 0 0-96z m629.333334-144a21.333333 21.333333 0 0 1 21.333333 21.333333v21.333334a21.333333 21.333333 0 0 1-21.333333 21.333333h-277.333334a21.333333 21.333333 0 0 1-21.333333-21.333333v-21.333334a21.333333 21.333333 0 0 1 21.333333-21.333333h277.333334zM245.333333 85.333333c49.749333 0 92.266667 30.96 109.333334 74.666667H874.666667a21.333333 21.333333 0 0 1 21.333333 21.333333v21.333334a21.333333 21.333333 0 0 1-21.333333 21.333333H360.730667C350.698667 278.613333 302.848 320 245.333333 320c-64.8 0-117.333333-52.533333-117.333333-117.333333s52.533333-117.333333 117.333333-117.333334z m0 69.333334a48 48 0 1 0 0 96 48 48 0 0 0 0-96z"></path>
  </symbol>
  <symbol id="icon-exit" viewBox="0 0 1024 1024">
    <path d="M912.266667 530.117333c8.656-8.853333 8.944-23.013333 0.858666-32.218666l-0.864-0.933334-176.842666-180.762666a22.576 22.576 0 0 0-31.52-0.885334l-0.917334 0.885334-16.213333 16.576c-8.661333 8.853333-8.949333 23.013333-0.869333 32.218666l0.864 0.933334 109.930666 112.373333H323.253333c-12.672 0-22.938667 10.490667-22.938666 23.44v23.445333c0 12.944 10.266667 23.445333 22.933333 23.445334h472.373333l-108.709333 109.136-0.88 0.928a23.834667 23.834667 0 0 0-0.272 31.285333l0.853333 0.938667 16.074667 16.725333a22.581333 22.581333 0 0 0 31.52 1.173333l0.917333-0.874666 177.136-177.829334zM848 74.666667v128.746666a10.666667 10.666667 0 0 1-10.666667 10.666667h-42.666666a10.666667 10.666667 0 0 1-10.666667-10.666667V117.333333H165.333333v789.333334h618.666667v-83.253334a10.666667 10.666667 0 0 1 10.666667-10.666666h42.666666a10.666667 10.666667 0 0 1 10.666667 10.666666V949.333333a21.333333 21.333333 0 0 1-21.333333 21.333334H122.666667a21.333333 21.333333 0 0 1-21.333334-21.333334V74.666667a21.333333 21.333333 0 0 1 21.333334-21.333334h704a21.333333 21.333333 0 0 1 21.333333 21.333334z"></path>
  </symbol>
  <symbol id="icon-code" viewBox="0 0 1024 1024">
    <path d="M906.688 96c11.776 0 21.312 9.6 21.312 21.312V928c0 11.776-9.6 21.312-21.312 21.312H117.312A21.312 21.312 0 0 1 96 928V117.312c0-11.776 9.6-21.312 21.312-21.312zM864 389.312h-704v496h704v-496z m-301.376 48.64l20.608 5.504c11.392 3.072 18.112 14.72 15.104 26.176l-99.392 370.88a21.312 21.312 0 0 1-26.176 15.104l-20.608-5.504a21.312 21.312 0 0 1-15.04-26.176L536.512 453.12a21.312 21.312 0 0 1 26.112-15.104z m111.232 202.24c8.32-8.32 21.76-8.32 30.144 0l75.456 75.392c8.32 8.32 8.32 21.824 0 30.144L704 821.184a21.312 21.312 0 0 1-30.144 0l-15.104-15.104a21.312 21.312 0 0 1 0-30.144l45.248-45.312-45.248-45.184a21.312 21.312 0 0 1 0-30.208zM352 490.752l15.104 15.104c8.32 8.32 8.32 21.824 0 30.144l-45.248 45.248 45.248 45.248c8.32 8.32 8.32 21.888 0 30.208l-15.104 15.104a21.312 21.312 0 0 1-30.144 0L246.4 596.416a21.312 21.312 0 0 1 0-30.144L321.92 490.816c8.32-8.32 21.76-8.32 30.144 0z m512-330.816h-704v165.312h704V160z"></path>
  </symbol>
  <symbol id="icon-home" viewBox="0 0 1024 1024">
    <path d="M106.688 949.312a21.312 21.312 0 0 1-21.376-21.312V353.152a21.376 21.376 0 0 1 9.6-24.896l401.92-232a21.248 21.248 0 0 1 11.968-2.816 21.12 21.12 0 0 1 8.192 1.088l3.904 1.728 406.4 234.688c5.76 3.328 9.344 8.832 10.432 14.848a19.84 19.84 0 0 1 0.96 6.208v576a21.312 21.312 0 0 1-17.024 20.928l-4.352 0.384H106.688zM508.8 163.2L149.312 370.752v514.56h192v-144a170.688 170.688 0 0 1 341.376 0v144h192V374.4L508.8 163.2zM512 634.688c-58.24 0-105.664 46.72-106.624 104.832v145.792h213.312v-144c0-58.24-46.784-105.6-104.832-106.624H512z"></path>
  </symbol>
  <symbol id="icon-poc_maindata" viewBox="0 0 1024 1024">
    <path d="M143.733333 649.706667l1.168 0.506666 369.461334 166.229334 353.578666-166a34.666667 34.666667 0 0 1 30.608 62.202666l-1.141333 0.56-368 172.778667a34.666667 34.666667 0 0 1-27.488 0.853333l-1.466667-0.618666-384-172.778667a34.666667 34.666667 0 0 1 27.28-63.733333z m0-170.666667l1.168 0.506667 369.461334 166.229333 353.578666-166a34.666667 34.666667 0 0 1 30.608 62.202667l-1.141333 0.56-368 172.778666a34.666667 34.666667 0 0 1-27.488 0.853334l-1.466667-0.618667-384-172.778667a34.666667 34.666667 0 0 1 27.28-63.733333zM501.104 136.106667a34.666667 34.666667 0 0 1 27.146667 0l372.922666 158.656a40 40 0 0 1 1.093334 73.130666l-373.066667 172.085334a34.666667 34.666667 0 0 1-29.045333 0L127.082667 367.882667a40 40 0 0 1 1.093333-73.130667z m13.573333 69.573333L216.213333 332.645333 514.666667 470.309333l298.453333-137.664-298.453333-126.970666z"></path>
  </symbol>
  <symbol id="icon-poc_index" viewBox="0 0 1024 1024">
    <path d="M789.333333 832a21.333333 21.333333 0 0 1 21.333334 21.333333v21.333334a21.333333 21.333333 0 0 1-21.333334 21.333333H234.666667a21.333333 21.333333 0 0 1-21.333334-21.333333v-21.333334a21.333333 21.333333 0 0 1 21.333334-21.333333h554.666666z m128-704a21.333333 21.333333 0 0 1 21.333334 21.333333v576a21.333333 21.333333 0 0 1-21.333334 21.333334H106.666667a21.333333 21.333333 0 0 1-21.333334-21.333334V149.333333a21.333333 21.333333 0 0 1 21.333334-21.333333h810.666666z m-42.666666 64H149.333333v490.666667h725.333334V192zM298.666667 362.666667a21.333333 21.333333 0 0 1 21.333333 21.333333v213.333333a21.333333 21.333333 0 0 1-21.333333 21.333334h-21.333334a21.333333 21.333333 0 0 1-21.333333-21.333334V384a21.333333 21.333333 0 0 1 21.333333-21.333333h21.333334z m149.333333 85.333333a21.333333 21.333333 0 0 1 21.333333 21.333333v128a21.333333 21.333333 0 0 1-21.333333 21.333334h-21.333333a21.333333 21.333333 0 0 1-21.333334-21.333334V469.333333a21.333333 21.333333 0 0 1 21.333334-21.333333h21.333333z m149.333333-48a21.333333 21.333333 0 0 1 21.333334 21.333333v176a21.333333 21.333333 0 0 1-21.333334 21.333334h-21.333333a21.333333 21.333333 0 0 1-21.333333-21.333334V421.333333a21.333333 21.333333 0 0 1 21.333333-21.333333h21.333333z m149.333334-122.666667a21.333333 21.333333 0 0 1 21.333333 21.333334v298.666666a21.333333 21.333333 0 0 1-21.333333 21.333334h-21.333334a21.333333 21.333333 0 0 1-21.333333-21.333334V298.666667a21.333333 21.333333 0 0 1 21.333333-21.333334h21.333334z"></path>
  </symbol>
  <symbol id="icon-report" viewBox="0 0 1024 1024">
    <path d="M362.688 64C374.4 64 384 73.6 384 85.312V128h256v-42.688c0-11.776 9.6-21.312 21.312-21.312h21.376c11.776 0 21.312 9.6 21.312 21.312V128h202.688c10.24 0 18.88 7.296 20.864 17.024l0.448 4.288v789.376c0 11.776-9.6 21.312-21.312 21.312H117.312a21.312 21.312 0 0 1-21.312-21.312V149.312c0-11.776 9.6-21.312 21.312-21.312H320v-42.688C320 73.6 329.6 64 341.312 64h21.376zM320 192H160v704h704V192H704v42.688c0 11.776-9.6 21.312-21.312 21.312h-21.376A21.312 21.312 0 0 1 640 234.688V192H384v42.688C384 246.4 374.4 256 362.688 256h-21.376A21.312 21.312 0 0 1 320 234.688V192z m426.688 512c11.776 0 21.312 9.6 21.312 21.312v21.376c0 11.776-9.6 21.312-21.312 21.312H277.312A21.312 21.312 0 0 1 256 746.688v-21.376c0-11.776 9.6-21.312 21.312-21.312h469.376z m0-170.688c11.776 0 21.312 9.6 21.312 21.376V576c0 11.776-9.6 21.312-21.312 21.312H277.312A21.312 21.312 0 0 1 256 576v-21.312c0-11.776 9.6-21.376 21.312-21.376h469.376z m0-170.624c11.776 0 21.312 9.536 21.312 21.312v21.312c0 11.776-9.6 21.376-21.312 21.376H277.312A21.312 21.312 0 0 1 256 405.312V384c0-11.776 9.6-21.312 21.312-21.312h469.376z"></path>
  </symbol>
  <symbol id="icon-manage" viewBox="0 0 1024 1024">
<path d="M874.026667 149.973333c77.824 77.824 73.685333 217.984 2.858666 362.026667 70.826667 144.085333 74.965333 284.202667-2.858666 362.026667-77.824 77.824-217.941333 73.685333-361.984 2.901333-144.085333 70.784-284.245333 74.922667-362.069334-2.901333-77.824-77.824-73.685333-217.941333-2.901333-361.984-70.784-144.085333-74.922667-284.245333 2.901333-362.069334C227.797333 72.106667 367.957333 76.288 512 147.114667c144.085333-70.826667 284.202667-74.965333 362.026667 2.858666zM231.125333 644.650667l-2.432 8.746666c-15.658667 59.221333-11.52 106.837333 11.776 130.133334 24.448 24.448 75.605333 27.776 138.922667 9.301333a870.869333 870.869333 0 0 1-148.266667-148.224z m561.706667 0l-2.048 2.688a871.893333 871.893333 0 0 1-67.584 75.861333 870.869333 870.869333 0 0 1-78.549333 69.674667c63.274667 18.432 114.432 15.104 138.88-9.344s27.776-75.605333 9.301333-138.922667zM512 293.546667l-6.101333 3.968a727.68 727.68 0 0 0-114.56 93.781333A724.394667 724.394667 0 0 0 293.546667 512a726.016 726.016 0 0 0 97.706666 120.618667 724.394667 724.394667 0 0 0 120.746667 97.706666 724.693333 724.693333 0 0 0 120.618667-97.706666A724.394667 724.394667 0 0 0 730.368 512a724.650667 724.650667 0 0 0-97.706667-120.661333A724.394667 724.394667 0 0 0 512 293.632zM512 426.666667a85.333333 85.333333 0 1 1 0 170.666666 85.333333 85.333333 0 0 1 0-170.666666zM379.392 231.168c-63.317333-18.474667-114.474667-15.146667-138.922667 9.301333s-27.776 75.605333-9.301333 138.922667a871.893333 871.893333 0 0 1 145.493333-146.133333l2.730667-2.133334z m274.005333-2.474667l-8.746666 2.432a870.869333 870.869333 0 0 1 78.506666 69.674667c25.429333 25.429333 48.682667 51.712 69.717334 78.549333 18.432-63.274667 15.104-114.432-9.344-138.88-23.296-23.296-70.912-27.434667-130.133334-11.776z"></path>
</symbol>
</svg>
